<svg width="19" height="12" viewBox="0 0 19 12" fill="none" xmlns="http://www.w3.org/2000/svg">
<path d="M8.18594 5.375C9.52969 5.75 10.1859 6.78125 10.1859 8.15625C10.1859 10.4062 8.31094 11.375 6.27969 11.375H0.935938V0.3125H6.15469C8.02969 0.3125 9.68594 0.84375 9.68594 3.0625C9.68594 4.15625 9.15469 4.875 8.18594 5.375ZM3.34219 2.1875V4.78125H5.81094C6.68594 4.78125 7.31094 4.40625 7.31094 3.46875C7.31094 2.4375 6.52969 2.1875 5.65469 2.1875H3.34219ZM5.96719 9.5C6.93594 9.5 7.74844 9.15625 7.74844 8.03125C7.74844 6.90625 7.09219 6.4375 5.99844 6.4375H3.34219V9.5H5.96719ZM17.1547 1.96875H12.6859V0.875H17.1547V1.96875ZM18.9359 7.5C18.9359 7.625 18.9047 7.78125 18.9047 7.90625H13.1234C13.1234 9.1875 13.8109 9.9375 15.0922 9.9375C15.7484 9.9375 16.6234 9.59375 16.8422 8.90625H18.7797C18.1859 10.7188 16.9359 11.5938 15.0297 11.5938C12.4984 11.5938 10.9047 9.875 10.9047 7.375C10.9047 4.96875 12.5609 3.125 15.0297 3.125C17.5297 3.125 18.9359 5.125 18.9359 7.5ZM13.1234 6.5H16.7172C16.6234 5.4375 16.0609 4.8125 14.9359 4.8125C13.9047 4.8125 13.1859 5.46875 13.1234 6.5Z" fill="black"/>
</svg>
