<svg width="15" height="15" viewBox="0 0 15 15" fill="none" xmlns="http://www.w3.org/2000/svg">
<path d="M3.40469 14.9375H0.498437V5.59375H3.40469V14.9375ZM1.93594 4.34375C1.02969 4.34375 0.279687 3.5625 0.279687 2.625C0.279687 1.71875 1.02969 0.96875 1.93594 0.96875C2.87344 0.96875 3.62344 1.71875 3.62344 2.625C3.62344 3.5625 2.87344 4.34375 1.93594 4.34375ZM14.2484 14.9375H11.3734V10.4062C11.3734 9.3125 11.3422 7.9375 9.84219 7.9375C8.34219 7.9375 8.12344 9.09375 8.12344 10.3125V14.9375H5.21719V5.59375H7.99844V6.875H8.02969C8.43594 6.15625 9.37344 5.375 10.7797 5.375C13.7172 5.375 14.2797 7.3125 14.2797 9.8125V14.9375H14.2484Z" fill="black"/>
</svg>
